<svg id="Layer_1" xmlns="http://www.w3.org/2000/svg" viewBox="0 0 48 48"><style>.st0{fill:#fff;stroke:#000;stroke-width:1.0312;stroke-opacity:.1}.st1{fill:#00d5ff}.st2{fill:#00a9ff}.st3{fill:#00afff}.st4{fill:#00b4ff}.st5{fill:#00baff}.st6{fill:#00a5f0}.st7{fill:#26c2ff}.st8{fill:#00bcfb}.st9{fill:#00c3fa}.st10{fill:#00b2fb}.st11{fill:#00bdf8}.st12{fill:#00d3ff}.st13{fill:#00d3ee}.st14{fill:#02a3ed}.st15{fill:#03b2fb}.st16{fill:#19c0ff}.st17{fill:#07bcf8}.st18{fill:#07baed}.st19{fill:#09c5f3}.st20{fill:#0ccaf2}.st21{fill:#0fdafc}.st22{fill:#0fd3ee}.st23{fill:#11e2f8}.st24{fill:#13ddeb}.st25{fill:#16f8ff}.st26{fill:#16e6e6}.st27{fill:#0fafff}.st28{fill:#0eb3fd}.st29{fill:#0dbaff}.st30{fill:#0cbcf9}.st31{fill:#09c6ff}.st32{fill:#08c4f6}.st33{fill:#07c3ed}.st34{fill:#07d8ff}.st35{fill:#06d1f0}.st36{fill:#05d5ee}.st37{fill:#03d9ec}.st38{fill:#02e3f0}.st39{fill:#01e2e8}.st40{fill:#00f2f2}.st41{fill:#19b2ff}.st42{fill:#1bb8ff}.st43{fill:#33c4ff}.st44{fill:#1cb4ec}.st45{fill:#1fc2f4}.st46{fill:#23d1ff}.st47{fill:#23caef}.st48{fill:#22c4e0}.st49{fill:#26d2e9}.st50{fill:#2cecff}.st51{fill:#29dae4}.st52{fill:#2bdee1}.st53{fill:#2ce2df}.st54{fill:#2fece0}</style><title>MeisterTask 2</title><g id="Logos"><g transform="translate(2 2)" id="MeisterTask-2"><g id="MeisterTask_1_"><circle id="BAdge" class="st0" cx="22" cy="22" r="22"/><g id="Check" transform="translate(8 11)"><path id="Fill-1" class="st1" d="M4 9.1l5.3 5.2L24 0l4 3.9L9.3 22 0 13l4-3.9"/><path id="Fill-2" class="st2" d="M5.3 18.1L4 16.8l1.3-1.3 1.3 1.3-1.3 1.3"/><path id="Fill-3" class="st3" d="M4 16.8l-1.3-1.3L4 14.2l1.3 1.3L4 16.8"/><path id="Fill-4" class="st4" d="M2.7 15.5l-1.3-1.3 1.3-1.3L4 14.2l-1.3 1.3"/><path id="Fill-5" class="st5" d="M1.3 14.2L0 12.9l1.3-1.3 1.3 1.3-1.3 1.3"/><path id="Fill-6" class="st6" d="M6.7 16.8l-1.3-1.3 1.3-1.3L8 15.5l-1.3 1.3"/><path id="Fill-7" class="st7" d="M5.3 15.5L4 14.2l1.3-1.3 1.3 1.3-1.3 1.3"/><path id="Fill-8" class="st8" d="M4 14.2l-1.3-1.3L4 11.6l1.3 1.3L4 14.2"/><path id="Fill-9" class="st9" d="M2.7 12.9l-1.3-1.3 1.3-1.3L4 11.6l-1.3 1.3"/><path id="Fill-10" class="st10" d="M8 15.5l-1.3-1.3L8 12.9l1.3 1.3L8 15.5"/><path id="Fill-11" class="st11" d="M6.7 14.2l-1.3-1.3 1.3-1.3L8 12.9l-1.3 1.3"/><path id="Fill-12" class="st12" d="M5.3 12.9L4 11.6l1.3-1.3 1.3 1.3-1.3 1.3"/><path id="Fill-13" class="st13" d="M4 11.6l-1.3-1.3L4 9.1l1.3 1.3L4 11.6"/><path id="Fill-14" class="st2" d="M9.3 22L8 20.7l1.3-1.3 1.3 1.3L9.3 22"/><path id="Fill-15" class="st14" d="M10.7 20.7l-1.3-1.3 1.3-1.3 1.3 1.3-1.3 1.3"/><path id="Fill-16" class="st15" d="M12 19.4l-1.3-1.3 1.3-1.3 1.3 1.3-1.3 1.3"/><path id="Fill-17" class="st16" d="M13.3 18.1L12 16.8l1.3-1.3 1.3 1.3-1.3 1.3"/><path id="Fill-18" class="st17" d="M14.7 16.8l-1.3-1.3 1.3-1.3 1.3 1.3-1.3 1.3"/><path id="Fill-19" class="st18" d="M16 15.5l-1.3-1.3 1.3-1.3 1.3 1.3-1.3 1.3"/><path id="Fill-20" class="st19" d="M17.3 14.2L16 12.9l1.3-1.3 1.3 1.3-1.3 1.3"/><path id="Fill-21" class="st20" d="M18.7 12.9l-1.3-1.3 1.3-1.3 1.3 1.3-1.3 1.3"/><path id="Fill-22" class="st21" d="M20 11.6l-1.3-1.3L20 9.1l1.3 1.3-1.3 1.2"/><path id="Fill-23" class="st22" d="M21.3 10.4L20 9.1l1.3-1.3 1.3 1.3-1.3 1.3"/><path id="Fill-24" class="st23" d="M22.7 9.1l-1.3-1.3 1.3-1.3L24 7.8l-1.3 1.3"/><path id="Fill-25" class="st24" d="M24 7.8l-1.3-1.3L24 5.2l1.3 1.3L24 7.8"/><path id="Fill-26" class="st25" d="M25.3 6.5L24 5.2l1.3-1.3 1.3 1.3-1.3 1.3"/><path id="Fill-27" class="st26" d="M26.7 5.2l-1.3-1.3 1.3-1.3L28 3.9l-1.3 1.3"/><path id="Fill-28" class="st27" d="M8 20.7l-1.3-1.3L8 18.1l1.3 1.3L8 20.7"/><path id="Fill-29" class="st28" d="M9.3 19.4L8 18.1l1.3-1.3 1.3 1.3-1.3 1.3"/><path id="Fill-30" class="st29" d="M10.7 18.1l-1.3-1.3 1.3-1.3 1.3 1.3-1.3 1.3"/><path id="Fill-31" class="st30" d="M12 16.8l-1.3-1.3 1.3-1.3 1.3 1.3-1.3 1.3"/><path id="Fill-32" class="st31" d="M13.3 15.5L12 14.2l1.3-1.3 1.3 1.3-1.3 1.3"/><path id="Fill-33" class="st32" d="M14.7 14.2l-1.3-1.3 1.3-1.3 1.3 1.3-1.3 1.3"/><path id="Fill-34" class="st33" d="M16 12.9l-1.3-1.3 1.3-1.3 1.3 1.3-1.3 1.3"/><path id="Fill-35" class="st34" d="M17.3 11.6L16 10.4l1.3-1.3 1.3 1.3-1.3 1.2"/><path id="Fill-36" class="st35" d="M18.7 10.4l-1.3-1.3 1.3-1.3L20 9.1l-1.3 1.3"/><path id="Fill-37" class="st36" d="M20 9.1l-1.3-1.3L20 6.5l1.3 1.3L20 9.1"/><path id="Fill-38" class="st37" d="M21.3 7.8L20 6.5l1.3-1.3 1.3 1.3-1.3 1.3"/><path id="Fill-39" class="st38" d="M22.7 6.5l-1.3-1.3 1.3-1.3L24 5.2l-1.3 1.3"/><path id="Fill-40" class="st39" d="M24 5.2l-1.3-1.3L24 2.6l1.3 1.3L24 5.2"/><path id="Fill-41" class="st40" d="M25.3 3.9L24 2.6l1.3-1.3 1.3 1.3-1.3 1.3"/><path id="Fill-42" class="st41" d="M6.7 19.4l-1.3-1.3 1.3-1.3L8 18.1l-1.3 1.3"/><path id="Fill-43" class="st42" d="M8 18.1l-1.3-1.3L8 15.5l1.3 1.3L8 18.1"/><path id="Fill-44" class="st43" d="M9.3 16.8L8 15.5l1.3-1.3 1.3 1.3-1.3 1.3"/><path id="Fill-45" class="st44" d="M10.7 15.5l-1.3-1.3 1.3-1.3 1.3 1.3-1.3 1.3"/><path id="Fill-46" class="st45" d="M12 14.2l-1.3-1.3 1.3-1.3 1.3 1.3-1.3 1.3"/><path id="Fill-47" class="st46" d="M13.3 12.9L12 11.6l1.3-1.3 1.3 1.3-1.3 1.3"/><path id="Fill-48" class="st47" d="M14.7 11.6l-1.3-1.3L14.7 9l1.3 1.3-1.3 1.3"/><path id="Fill-49" class="st48" d="M16 10.4l-1.3-1.3L16 7.8l1.3 1.3-1.3 1.3"/><path id="Fill-50" class="st49" d="M17.3 9.1L16 7.8l1.3-1.3 1.3 1.3-1.3 1.3"/><path id="Fill-51" class="st50" d="M18.7 7.8l-1.3-1.3 1.3-1.3L20 6.5l-1.3 1.3"/><path id="Fill-52" class="st51" d="M20 6.5l-1.3-1.3L20 3.9l1.3 1.3L20 6.5"/><path id="Fill-53" class="st52" d="M21.3 5.2L20 3.9l1.3-1.3 1.3 1.3-1.3 1.3"/><path id="Fill-54" class="st53" d="M22.7 3.9l-1.3-1.3 1.3-1.3L24 2.6l-1.3 1.3"/><path id="Fill-55" class="st54" d="M24 2.6l-1.3-1.3L24 0l1.3 1.3L24 2.6"/></g></g></g></g></svg>
